Coordinates
version=1
nRows=24
nColumns=24
inDegrees=yes

Units are S.I. units (second, meters, Newtons, ...)
Angles are in degrees.

endheader
time	pelvis_tilt	pelvis_list	pelvis_rotation	pelvis_tx	pelvis_ty	pelvis_tz	hip_flexion_r	hip_adduction_r	hip_rotation_r	knee_angle_r	ankle_angle_r	subtalar_angle_r	mtp_angle_r	hip_flexion_l	hip_adduction_l	hip_rotation_l	knee_angle_l	ankle_angle_l	subtalar_angle_l	mtp_angle_l	lumbar_extension	lumbar_bending	lumbar_rotation
      9.26000000	     61.93079687	    -12.39216358	     -7.54623493	      0.42366246	      1.06198007	     -0.33756080	     14.86986042	      5.98310044	      2.73694473	     -7.72738225	    -12.57458671	     12.34184648	      0.00000000	     -2.00591003	    -26.80234943	     -8.54733284	    -58.19104004	     24.84595473	     27.54684226	      0.00000000	      0.00000000	      0.00000000	      0.00000000
      9.27000000	     61.95709552	    -12.41445231	     -7.52222742	      0.42367159	      1.06206212	     -0.33753306	     14.80011019	      5.99747290	      2.80323623	     -7.62729313	    -13.00519383	     11.99314924	      0.00000000	     -2.03495212	    -26.83252716	     -8.54695422	    -58.17379086	     24.83902468	     27.55530029	      0.00000000	      0.00000000	      0.00000000	      0.00000000
      9.28000000	     61.96513117	    -12.41967177	     -7.51088390	      0.42369145	      1.06206248	     -0.33747517	     14.75245434	      5.98786867	      2.94621585	     -7.53774143	    -13.28880707	     12.01642661	      0.00000000	     -2.04224935	    -26.84392520	     -8.54446604	    -58.16865909	     24.83630760	     27.55938142	      0.00000000	      0.00000000	      0.00000000	      0.00000000
      9.29000000	     61.95365258	    -12.41240251	     -7.51661224	      0.42369079	      1.06202219	     -0.33744295	     14.73680006	      5.96030027	      3.10320491	     -7.48335228	    -13.42027437	     12.28376483	      0.00000000	     -2.02797735	    -26.83852035	     -8.54207537	    -58.17448087	     24.83747771	     27.55907990	      0.00000000	      0.00000000	      0.00000000	      0.00000000
      9.30000000	     61.92812977	    -12.39711815	     -7.53455700	      0.42367687	      1.06197008	     -0.33745006	     14.75560375	      5.92462303	      3.22343700	     -7.47346633	    -13.42715111	     12.63230997	      0.00000000	     -1.99552729	    -26.82091679	     -8.54025445	    -58.18814614	     24.84147801	     27.55518185	      0.00000000	      0.00000000	      0.00000000	      0.00000000
      9.31000000	     61.89673809	    -12.37735272	     -7.55429172	      0.42367094	      1.06190961	     -0.33747836	     14.80265891	      5.89146979	      3.27732706	     -7.50156052	    -13.35860154	     12.91255771	      0.00000000	     -1.95186557	    -26.79765967	     -8.53776307	    -58.20556240	     24.84679030	     27.54898679	      0.00000000	      0.00000000	      0.00000000	      0.00000000
      9.32000000	     61.86662513	    -12.35693834	     -7.56610372	      0.42368948	      1.06184468	     -0.33750779	     14.86414388	      5.86837795	      3.25778644	     -7.55102821	    -13.26841710	     13.02785695	      0.00000000	     -1.90630592	    -26.77598420	     -8.53293056	    -58.22212285	     24.85178459	     27.54201253	      0.00000000	      0.00000000	      0.00000000	      0.00000000
      9.33000000	     61.84243845	    -12.34066057	     -7.56623451	      0.42374028	      1.06179659	     -0.33753887	     14.92282318	      5.85786957	      3.17654744	     -7.60303066	    -13.19719821	     12.95689189	      0.00000000	     -1.86853954	    -26.76170587	     -8.52525642	    -58.23327387	     24.85509019	     27.53571365	      0.00000000	      0.00000000	      0.00000000	      0.00000000
      9.34000000	     61.82691693	    -12.33272257	     -7.55846109	      0.42381555	      1.06179076	     -0.33758661	     14.96370680	      5.85824088	      3.05902230	     -7.64292114	    -13.15937961	     12.75568317	      0.00000000	     -1.84651361	    -26.75682219	     -8.51624674	    -58.23565034	     24.85594635	     27.53121014	      0.00000000	      0.00000000	      0.00000000	      0.00000000
      9.35000000	     61.82214019	    -12.33384417	     -7.55106425	      0.42388000	      1.06182777	     -0.33764207	     14.97867514	      5.86562071	      2.93995984	     -7.66340488	    -13.13921023	     12.54024125	      0.00000000	     -1.84450034	    -26.75787831	     -8.50906076	    -58.22861286	     24.85444762	     27.52904992	      0.00000000	      0.00000000	      0.00000000	      0.00000000
      9.36000000	     61.83000404	    -12.33899103	     -7.55075692	      0.42388529	      1.06186967	     -0.33765593	     14.96832458	      5.87508717	      2.85991537	     -7.66427309	    -13.09680731	     12.45459119	      0.00000000	     -1.86181709	    -26.75673741	     -8.50710551	    -58.21533064	     24.85156790	     27.52904730	      0.00000000	      0.00000000	      0.00000000	      0.00000000
      9.37000000	     61.85115460	    -12.33805320	     -7.55766319	      0.42381360	      1.06186848	     -0.33759315	     14.94029081	      5.87925016	      2.86053875	     -7.65006328	    -12.98230641	     12.63115856	      0.00000000	     -1.89257677	    -26.74500207	     -8.51207651	    -58.20227067	     24.84891069	     27.53024319	      0.00000000	      0.00000000	      0.00000000	      0.00000000
      9.38000000	     61.88233735	    -12.32151755	     -7.56566806	      0.42370463	      1.06182237	     -0.33750788	     14.90412868	      5.86455123	      2.97611332	     -7.62782282	    -12.75394369	     13.15161812	      0.00000000	     -1.92646413	    -26.72063261	     -8.52233360	    -58.19653544	     24.84823790	     27.53105777	      0.00000000	      0.00000000	      0.00000000	      0.00000000
      9.39000000	     61.91334990	    -12.29008830	     -7.56873817	      0.42364835	      1.06179161	     -0.33751968	     14.86458895	      5.80926505	      3.22056016	     -7.60630958	    -12.39499835	     14.01659549	      0.00000000	     -1.95041835	    -26.69168950	     -8.53279436	    -58.20198000	     24.85088525	     27.52972368	      0.00000000	      0.00000000	      0.00000000	      0.00000000
      9.40000000	     61.92694764	    -12.26046876	     -7.56767257	      0.42373409	      1.06181897	     -0.33765439	     14.81849378	      5.69147536	      3.57326602	     -7.59539061	    -11.92479721	     15.13211166	      0.00000000	     -1.95180565	    -26.67178704	     -8.53729698	    -58.21663705	     24.85719605	     27.52500064	      0.00000000	      0.00000000	      0.00000000	      0.00000000
      9.41000000	     61.90656911	    -12.25513902	     -7.56948925	      0.42394736	      1.06183813	     -0.33775525	     14.76177689	      5.51276412	      3.97175695	     -7.60259934	    -11.40027332	     16.31879208	      0.00000000	     -1.92376278	    -26.66832258	     -8.53280742	    -58.23389698	     24.86616374	     27.51692650	      0.00000000	      0.00000000	      0.00000000	      0.00000000
      9.42000000	     61.85222552	    -12.27594171	     -7.57881723	      0.42411217	      1.06175412	     -0.33771613	     14.70568871	      5.32452030	      4.32061070	     -7.62674600	    -10.90677994	     17.34570620	      0.00000000	     -1.87079922	    -26.67400184	     -8.52229836	    -58.24708051	     24.87552538	     27.50711149	      0.00000000	      0.00000000	      0.00000000	      0.00000000
      9.43000000	     61.79012939	    -12.29164165	     -7.59164152	      0.42404834	      1.06164147	     -0.33773947	     14.68448362	      5.21776864	      4.52034618	     -7.65602438	    -10.53977255	     17.98401520	      0.00000000	     -1.80947409	    -26.67255574	     -8.51287378	    -58.25369103	     24.88245237	     27.49819930	      0.00000000	      0.00000000	      0.00000000	      0.00000000
      9.44000000	     61.75388503	    -12.27366520	     -7.60120019	      0.42384189	      1.06165557	     -0.33795471	     14.73219867	      5.25276051	      4.50729151	     -7.67911686	    -10.38186778	     18.06788690	      0.00000000	     -1.76046926	    -26.65538081	     -8.50995254	    -58.25569061	     24.88466145	     27.49272659	      0.00000000	      0.00000000	      0.00000000	      0.00000000
      9.45000000	     61.75040825	    -12.23623536	     -7.60732272	      0.42374453	      1.06174336	     -0.33806195	     14.84433171	      5.40027406	      4.28233449	     -7.69823825	    -10.48148336	     17.54435246	      0.00000000	     -1.73613968	    -26.63192201	     -8.51294924	    -58.25616556	     24.88139483	     27.49214899	      0.00000000	      0.00000000	      0.00000000	      0.00000000
      9.46000000	     61.75770139	    -12.21523202	     -7.61335078	      0.42380666	      1.06173722	     -0.33786476	     14.97512262	      5.57823125	      3.90966097	     -7.72234721	    -10.83893276	     16.49308069	      0.00000000	     -1.73380271	    -26.62215066	     -8.51665203	    -58.25616379	     24.87366895	     27.49661919	      0.00000000	      0.00000000	      0.00000000	      0.00000000
      9.47000000	     61.75600766	    -12.22646186	     -7.61665728	      0.42389330	      1.06164475	     -0.33759925	     15.07622479	      5.72666797	      3.48798155	     -7.74826711	    -11.40378847	     15.10685524	      0.00000000	     -1.74068149	    -26.63958816	     -8.51622527	    -58.25453037	     24.86366800	     27.50537066	      0.00000000	      0.00000000	      0.00000000	      0.00000000
      9.48000000	     61.74594169	    -12.26093549	     -7.60917964	      0.42393004	      1.06160567	     -0.33750830	     15.12791194	      5.83191461	      3.11253009	     -7.75736536	    -12.08401060	     13.64176690	      0.00000000	     -1.74517962	    -26.68246415	     -8.51042143	    -58.24996295	     24.85379840	     27.51712916	      0.00000000	      0.00000000	      0.00000000	      0.00000000
      9.49000000	     61.73807948	    -12.30238422	     -7.58744622	      0.42394426	      1.06167507	     -0.33756087	     15.13710487	      5.90476557	      2.84610257	     -7.73225021	    -12.76359673	     12.35759753	      0.00000000	     -1.74407244	    -26.73826193	     -8.50106779	    -58.24260313	     24.84603579	     27.53027842	      0.00000000	      0.00000000	      0.00000000	      0.00000000
